<svg width="63" height="43" viewBox="0 0 63 43" fill="none" xmlns="http://www.w3.org/2000/svg">
<rect x="1.5" y="1.5" width="60" height="40" rx="4.5" stroke="#7E7E7F" stroke-opacity="0.7" stroke-width="3"/>
<rect x="2" y="8" width="59" height="4" fill="#7E7E7F" fill-opacity="0.7"/>
<rect x="2" y="16" width="59" height="4" fill="#7E7E7F" fill-opacity="0.7"/>
<rect x="8" y="27" width="20" height="3" fill="#7E7E7F" fill-opacity="0.7"/>
<rect x="8" y="31" width="20" height="3" fill="#7E7E7F" fill-opacity="0.7"/>
<rect x="8" y="35" width="20" height="3" fill="#7E7E7F" fill-opacity="0.7"/>
<path d="M57 31.5C57 33.0999 56.4099 34.6436 55.3428 35.8356C54.2756 37.0276 52.8063 37.7842 51.2161 37.9604C49.626 38.1367 48.0266 37.7203 46.7243 36.791C45.422 35.8616 44.5082 34.4846 44.1578 32.9235C43.8074 31.3625 44.0451 29.727 44.8253 28.3302C45.6055 26.9335 46.8734 25.8735 48.3864 25.3532C49.8993 24.833 51.551 24.889 53.0253 25.5106C54.4995 26.1322 55.6927 27.2756 56.3765 28.722L54.9245 29.4084C54.4096 28.3194 53.5113 27.4585 52.4013 26.9905C51.2913 26.5225 50.0478 26.4803 48.9086 26.872C47.7695 27.2637 46.8148 28.0618 46.2274 29.1134C45.64 30.1651 45.4611 31.3965 45.7249 32.5718C45.9887 33.7472 46.6767 34.7839 47.6572 35.4836C48.6378 36.1833 49.8419 36.4969 51.0392 36.3641C52.2364 36.2314 53.3427 35.6618 54.1462 34.7643C54.9497 33.8669 55.3939 32.7046 55.3939 31.5H57Z" fill="#7E7E7F" fill-opacity="0.7"/>
</svg>
